<?xml version="1.0" encoding="utf-8"?>
<!-- Decoded by svgb2svg converter version 1.1.0 -->
<!DOCTYPE svg PUBLIC "-//W3C//DTD SVG 1.0//EN" "http://www.w3.org/TR/2001/REC-SVG-20010904/DTD/svg10.dtd">
<svg xmlns="http://www.w3.org/2000/svg" baseProfile="tiny" height="100%" version="1.1" viewBox="0 0 100 100" width="100%">
  <rect fill="none" height="100" width="100"/>
  <linearGradient gradientUnits="userSpaceOnUse" id="XMLID_6_" x1="49.0129" x2="72.1045" y1="15.5591" y2="55.5547">
    <stop offset="0.0562" stop-color="#949494"/>
    <stop offset="0.5" stop-color="#F4F4F4"/>
    <stop offset="0.9831" stop-color="#5E5E5E"/>
  </linearGradient>
  <path d="M83.42,28.521C83.486,26.469,83.35,24.481,82.659,23.421C81.66,21.892,79.958,21.084,78.437,20.727C76.914,20.373,35.894,16.826,32.99,16.616C30.083,16.405,27.523,16.616,25.589,16.761C24.346,16.852,22.408,17.372,21.163,17.741C21.163,17.741,21.163,17.741,21.1601,17.741C21.9841,17.622,75.609,85.203,73.738,86.236C73.759,86.224,73.773,86.212,73.798,86.199C74.624,85.785,76.792,84.681,77.953,84.001C79.407,83.152,81.202,81.945,81.689,80.74C82.175,79.535,83.352,30.575,83.42,28.521z" fill="url(#XMLID_6_)"/>
  <path d="M22.562,17.781L70.93,22.317C70.93,22.317,74.438,22.487,75.789,24.747C76.775,26.393,76.76,30.611,76.76,30.611L75.682,81.591L67.598,86.548L23.099,75.619C23.099,75.619,20.184,75.066,19.104,73.298C18.125,71.695,17.955,68.615,17.955,68.615L17.268,22.203C17.268,22.203,17.388,20.145,18.778,18.887C20.614,17.229,22.562,17.781,22.562,17.781z" fill="#FFFFFF"/>
  <radialGradient cx="30.0814" cy="24.1842" gradientUnits="userSpaceOnUse" id="XMLID_7_" r="63.6327">
    <stop offset="0" stop-color="#FFFFFF"/>
    <stop offset="0.249" stop-color="#F8F8F8"/>
    <stop offset="0.6016" stop-color="#E5E5E5"/>
    <stop offset="1" stop-color="#C7C7C7"/>
  </radialGradient>
  <path d="M30.407,44.658L30.382,21.353L62.309,23.996L60.548,81.305L31.501,74.264L30.407,44.658z" fill="url(#XMLID_7_)"/>
  <radialGradient cx="19.4388" cy="21.3044" gradientUnits="userSpaceOnUse" id="XMLID_8_" r="80.0592">
    <stop offset="0" stop-color="#CCCCCC"/>
    <stop offset="1" stop-color="#0D0D0D"/>
  </radialGradient>
  <path d="M72.09,27.105C70.936,25.059,69.246,25.235,69.246,25.235L69.246,31.725L63.113,30.926L63.113,24.792L60.267,24.435L60.267,46.847C60.267,46.847,60.267,47.913,59.822,48.538C59.375,49.16,58.308,49.073,58.308,49.073L31.63,44.892C31.63,44.892,31.092,44.449,30.561,44.002C30.027,43.555,29.758,42.488,29.758,42.488L29.758,21.858L25.935,21.59L25.935,27.283L21.456,26.867L21.312,21.056C21.312,21.056,19.886,21.856,19.439,22.479C18.9981,23.102,18.7311,24.612,18.7311,24.612C18.7311,24.612,19.9771,67.387,19.9771,68.01C19.9771,68.635,20.152,69.878,20.599,71.208C21.042,72.544,22.825,73.169,22.825,73.169L22.825,68.188L27.358,69.255L27.358,74.145L30.384,74.858L30.384,55.563C30.384,55.563,30.827,54.5,31.363,54.141C31.895,53.787,32.608,53.961,32.608,53.961L58.579,58.674C58.579,58.674,59.641,59.229,60.174,59.85C60.71,60.473,60.463,62.1,60.463,62.1L60.516,81.039L72.4499,78.24L73.0749,30.842C73.072,30.836,73.251,29.149,72.09,27.105zM21.908,45.083L26.642,45.695L26.642,52.008L21.908,51.223L21.908,45.083zM27.009,63.865L22.334,63.058L22.334,56.92L27.053,57.531L27.009,63.865zM63.301,37.822L69.08,38.331L69.047,45.14L63.279,44.216L63.301,37.822zM69.048,70.732L63.285,69.628L63.285,63.309L69.086,64.223L69.048,70.732zM69.048,58.857L63.285,57.752L63.285,51.432L69.086,52.35L69.048,58.857z" fill="url(#XMLID_8_)"/>
  <radialGradient cx="58.8066" cy="81.6514" gradientUnits="userSpaceOnUse" id="XMLID_9_" r="16.5531">
    <stop offset="0" stop-color="#FF9900"/>
    <stop offset="0.1598" stop-color="#FF7800"/>
    <stop offset="0.4433" stop-color="#FF3300"/>
    <stop offset="0.8" stop-color="#C50F00"/>
    <stop offset="1" stop-color="#721700"/>
  </radialGradient>
  <path d="M76.58,79.984C77.688,85.499,72.212,91.234,64.364,92.799C56.513,94.372,49.26,91.174,48.161,85.658C47.057,80.15,52.526,74.407,60.376,72.842C68.223,71.279,75.479,74.476,76.58,79.984z" fill="url(#XMLID_9_)"/>
  <linearGradient gradientUnits="userSpaceOnUse" id="XMLID_10_" x1="63.8678" x2="84.273" y1="50.1857" y2="53.767">
    <stop offset="0" stop-color="#FF7800"/>
    <stop offset="0.4" stop-color="#FF3300"/>
    <stop offset="1" stop-color="#8B1700"/>
  </linearGradient>
  <path d="M84.242,53.945L75.256,41.966L75.712,84.352C75.712,84.352,74.354,81.84,72.991,80.065C71.628,78.291,69.004,76.514,69.004,76.514L69.07,20.836C69.07,20.836,69.068,19.159,69.902,19.159C71.31,19.1581,83.501,41.6,84.027,44.106C84.408,45.955,84.242,53.945,84.242,53.945z" fill="url(#XMLID_10_)"/>
  <path d="M75.712,84.352C76.461,83.016,77.139,81.506,77.149,80.089L77.168,80.079C77.168,80.079,76.937,44.398,76.937,44.028L75.265,41.967L75.712,84.352z" fill="#8B1700"/>
  <polygon fill="#FFFFFF" points="21.658 32.708 26.392 33.32 26.392 39.633 21.658 38.847"/>
</svg>
